<?xml version="1.0" standalone="no"?>
<!DOCTYPE svg PUBLIC "-//W3C//DTD SVG 20010904//EN"
 "http://www.w3.org/TR/2001/REC-SVG-20010904/DTD/svg10.dtd">
<svg version="1.0" xmlns="http://www.w3.org/2000/svg"
 width="225.000000pt" height="225.000000pt" viewBox="0 0 225.000000 225.000000"
 preserveAspectRatio="xMidYMid meet">

<g transform="translate(0.000000,225.000000) scale(0.100000,-0.100000)"
fill="#000000" stroke="none">
<path d="M775 2056 c-598 -116 -934 -747 -696 -1306 109 -256 331 -450 616
-536 82 -25 104 -28 250 -27 184 0 256 15 400 82 108 51 163 89 254 175 148
143 246 323 280 520 15 84 14 251 -3 338 -69 356 -341 647 -691 739 -103 27
-310 34 -410 15z m345 -32 c190 -36 355 -127 496 -275 166 -175 244 -375 244
-628 0 -432 -305 -805 -729 -893 -134 -28 -309 -21 -436 16 -248 74 -454 248
-570 481 -190 381 -84 849 252 1116 209 166 481 233 743 183z"/>
<path d="M770 1955 c-265 -59 -479 -228 -595 -469 -67 -140 -80 -196 -80 -371
0 -175 12 -231 80 -372 86 -177 221 -312 399 -398 142 -68 196 -80 376 -80
173 1 240 15 372 80 238 118 409 337 464 593 18 86 18 268 0 354 -66 309 -300
560 -608 649 -96 28 -313 35 -408 14z m385 -25 c289 -74 512 -292 601 -585 24
-79 27 -107 27 -225 1 -150 -18 -241 -73 -358 -91 -194 -262 -355 -460 -431
-551 -213 -1145 194 -1145 784 0 416 307 772 720 835 87 13 238 4 330 -20z"/>
<path d="M771 1750 c-109 -29 -194 -81 -286 -174 -59 -60 -89 -100 -114 -154
l-35 -72 -75 -23 -75 -23 22 -19 c12 -11 31 -28 42 -37 18 -16 18 -20 4 -68
-17 -56 -13 -78 22 -130 18 -25 24 -49 24 -87 0 -55 8 -66 80 -106 26 -14 31
-22 25 -40 -3 -12 -9 -43 -12 -69 -5 -43 -3 -50 26 -78 34 -34 38 -61 16 -100
-18 -32 -19 -81 -2 -104 12 -17 21 -14 143 36 l129 55 17 -28 c10 -16 34 -37
55 -46 38 -18 38 -18 41 -85 3 -58 6 -70 29 -87 l25 -21 124 117 c95 89 136
121 181 139 185 76 334 249 379 442 13 55 22 72 51 96 58 48 78 121 52 193 -5
17 -32 49 -59 72 -63 53 -77 94 -60 167 11 43 11 62 1 95 -30 98 -159 149
-255 99 -36 -18 -41 -18 -69 -3 -78 40 -143 55 -257 59 -93 3 -129 0 -189 -16z
m360 -26 c43 -15 86 -32 96 -39 16 -12 14 -15 -17 -34 -42 -25 -84 -26 -193
-5 -103 20 -150 10 -212 -47 -53 -49 -75 -108 -75 -198 1 -108 53 -189 132
-206 18 -4 46 -14 62 -22 25 -13 27 -18 22 -51 -16 -103 -18 -123 -12 -156 9
-45 57 -93 103 -102 54 -10 95 14 137 84 22 37 46 64 63 70 16 6 92 12 171 14
l143 3 -7 -30 c-39 -182 -163 -343 -328 -424 -102 -50 -176 -26 -176 57 0 46
-13 66 -65 102 -33 23 -47 40 -55 70 -12 45 -30 58 -94 66 -54 8 -62 15 -69
73 -6 50 -32 81 -80 97 -31 10 -32 12 -35 76 -2 50 -8 70 -22 83 -16 15 -22
16 -35 5 -13 -11 -20 -10 -43 7 -33 24 -38 52 -18 92 17 31 20 68 10 95 -5 13
-17 11 -86 -15 -45 -16 -83 -27 -86 -25 -12 13 79 148 143 212 168 166 402
221 626 148z m296 -35 c40 -15 81 -57 88 -90 4 -16 1 -53 -6 -83 -10 -48 -10
-61 5 -100 10 -26 35 -61 59 -82 54 -49 66 -70 67 -120 0 -54 -33 -103 -90
-131 -39 -20 -59 -23 -173 -23 -154 0 -172 -7 -223 -88 -54 -83 -80 -97 -137
-71 -53 24 -67 83 -45 190 15 75 0 100 -74 124 -73 24 -95 39 -118 85 -26 52
-27 158 -1 216 22 48 81 99 124 108 17 4 77 -1 132 -10 120 -21 163 -15 213
30 20 18 46 38 57 44 26 14 86 15 122 1z m-914 -315 c3 -3 -3 -26 -14 -51 -26
-61 -24 -84 11 -118 l30 -29 -27 -28 c-31 -33 -43 -35 -43 -10 0 19 -56 79
-65 70 -3 -3 8 -19 25 -36 38 -39 38 -64 -2 -96 l-32 -25 -25 36 c-25 38 -27
52 -16 145 7 52 6 57 -16 69 -22 11 -18 14 66 44 106 38 100 37 108 29z m-179
-93 c15 -17 16 -25 4 -81 -12 -61 -12 -64 14 -110 27 -47 27 -48 7 -66 -10 -9
-20 -15 -22 -13 -2 2 -18 28 -37 57 -31 49 -32 56 -21 91 15 53 14 96 -4 111
-23 19 -18 30 13 30 16 0 37 -9 46 -19z m276 -161 c0 -63 21 -100 55 -100 31
0 65 -47 65 -89 0 -31 6 -44 26 -60 15 -12 38 -21 53 -21 42 0 74 -22 83 -57
5 -19 23 -44 45 -60 61 -48 73 -62 73 -92 0 -48 21 -92 49 -102 l26 -10 -33
-30 c-18 -16 -36 -29 -41 -29 -10 0 -21 35 -21 72 0 36 -38 77 -79 85 -25 4
-32 3 -27 -5 4 -7 15 -12 25 -12 34 0 62 -33 68 -80 3 -25 9 -52 14 -61 6 -12
-3 -26 -32 -55 -49 -47 -59 -38 -59 52 0 66 -7 78 -53 89 -37 10 -57 41 -57
91 0 34 -5 47 -26 63 -15 12 -40 21 -56 21 -45 0 -66 16 -78 60 -8 29 -22 48
-55 71 -47 34 -50 38 -60 109 -8 49 -20 69 -48 79 -15 6 -6 17 55 69 40 33 76
61 81 62 4 0 7 -27 7 -60z m-122 -107 c6 -9 12 -37 12 -61 0 -45 10 -59 83
-119 14 -12 29 -35 33 -50 10 -44 33 -62 85 -69 58 -8 64 -14 73 -78 7 -57 25
-81 72 -96 38 -13 50 -40 40 -93 -3 -19 0 -43 8 -59 13 -24 12 -28 -4 -43 -29
-26 -40 -10 -40 56 0 73 -11 95 -49 104 -41 9 -58 32 -64 89 -6 60 -20 74 -87
89 -54 12 -59 17 -80 74 -7 17 -30 44 -52 59 -43 30 -58 57 -58 107 0 41 -25
77 -52 77 -21 0 -21 0 -2 21 21 23 60 19 82 -8z m-117 -33 c5 0 9 -9 9 -20 0
-11 11 -27 24 -35 13 -9 27 -28 31 -43 3 -15 14 -38 23 -52 9 -14 15 -41 13
-62 -2 -31 3 -43 34 -73 38 -38 39 -48 9 -107 -8 -15 -14 -40 -14 -56 0 -27
-14 -42 -40 -42 -18 0 -18 30 1 64 28 53 25 101 -7 123 -37 24 -44 50 -27 106
13 43 12 51 -2 73 -8 13 -33 33 -55 44 -35 18 -40 25 -40 56 0 29 3 35 16 30
9 -3 20 -6 25 -6z m49 -14 c0 -2 3 -12 6 -20 4 -12 2 -15 -9 -10 -21 8 -30 34
-12 34 8 0 15 -2 15 -4z m130 -241 c0 -28 35 -65 62 -65 18 0 20 -4 14 -31 -3
-17 -6 -42 -6 -54 0 -17 -11 -27 -50 -43 -45 -19 -52 -19 -57 -6 -3 9 4 36 16
60 28 58 27 85 -5 115 -35 33 -46 56 -39 80 7 20 8 20 36 -7 16 -15 29 -37 29
-49z m150 -94 c5 -11 10 -24 10 -30 0 -13 -61 -40 -73 -34 -8 5 -1 58 10 76 8
14 42 7 53 -12z"/>
<path d="M1035 1517 c-47 -26 -85 -92 -85 -147 0 -59 38 -122 90 -147 56 -29
104 -29 160 0 56 28 90 83 90 147 0 130 -141 211 -255 147z m165 -15 c89 -56
101 -168 26 -241 -62 -60 -152 -60 -213 2 -62 62 -62 153 0 215 51 51 128 61
187 24z"/>
<path d="M1075 1471 c-31 -13 -54 -44 -61 -82 -8 -41 6 -31 21 14 6 21 22 38
43 49 19 9 36 19 39 22 9 9 -18 6 -42 -3z"/>
<path d="M560 981 c0 -5 13 -12 29 -16 40 -9 53 -27 62 -87 5 -28 13 -56 18
-61 5 -5 36 -15 68 -21 51 -10 60 -16 75 -46 19 -39 25 -16 7 24 -12 25 -35
36 -79 36 -39 0 -70 27 -70 60 0 42 -16 77 -42 93 -32 21 -68 30 -68 18z"/>
<path d="M2040 1677 c0 -130 -3 -196 -10 -192 -6 4 -10 80 -10 196 l0 190 -22
-3 -23 -3 0 -276 0 -276 38 -42 37 -41 0 -108 c0 -59 -5 -237 -11 -397 -6
-159 -7 -310 -4 -334 17 -113 140 -125 165 -16 10 39 3 244 -21 633 -6 95 -7
187 -4 203 4 17 21 47 38 66 l32 36 3 206 c1 113 -1 240 -5 281 -7 68 -10 75
-31 78 l-23 3 1 -198 c1 -109 -2 -198 -7 -198 -4 0 -9 89 -11 198 l-2 197 -25
0 -25 0 0 -200 c0 -127 -4 -200 -10 -200 -6 0 -10 38 -10 93 0 52 -3 141 -6
198 -7 101 -7 104 -30 104 l-24 0 0 -198z m-30 -23 l0 -195 23 3 c22 3 22 3
22 197 0 145 3 195 12 198 10 4 13 -42 15 -194 3 -197 3 -198 26 -201 l22 -3
0 200 c0 172 2 201 15 201 13 0 15 -28 15 -195 l0 -195 26 0 27 0 -5 195 c-4
149 -2 195 7 195 9 0 14 -59 19 -224 9 -252 4 -311 -29 -344 -49 -49 -49 -59
-31 -405 22 -438 22 -521 -4 -547 -23 -23 -68 -26 -94 -7 -29 21 -33 83 -25
348 16 506 16 542 -5 574 -11 16 -28 36 -38 45 -16 13 -18 41 -24 271 -7 251
-4 297 16 284 6 -4 10 -81 10 -201z"/>
<path d="M2081 893 c0 -82 2 -143 4 -138 8 24 12 285 4 285 -5 0 -9 -66 -8
-147z"/>
<path d="M2070 664 c0 -27 4 -43 10 -39 6 3 10 24 10 46 0 21 -4 39 -10 39 -5
0 -10 -21 -10 -46z"/>
</g>
</svg>
