<?xml version="1.0" standalone="no"?>
<!DOCTYPE svg PUBLIC "-//W3C//DTD SVG 20010904//EN"
 "http://www.w3.org/TR/2001/REC-SVG-20010904/DTD/svg10.dtd">
<svg version="1.0" xmlns="http://www.w3.org/2000/svg"
 width="90.000000pt" height="90.000000pt" viewBox="0 0 474.000000 474.000000"
 preserveAspectRatio="xMidYMid meet">

<g transform="translate(0.000000,474.000000) scale(0.100000,-0.100000)"
fill="#000000" stroke="none">
<path d="M2190 4734 c-364 -42 -598 -107 -865 -239 -206 -102 -463 -279 -559
-385 -36 -40 -41 -55 -30 -85 6 -15 54 -45 73 -45 5 0 56 39 113 86 654 547
1523 684 2304 363 635 -261 1131 -832 1303 -1502 142 -551 64 -1157 -212
-1645 -336 -593 -905 -993 -1582 -1113 -174 -31 -519 -34 -694 -6 -712 113
-1310 540 -1649 1177 -102 191 -181 429 -223 665 -19 110 -23 165 -23 355 0
248 13 367 64 565 73 283 226 596 399 815 23 28 41 61 41 72 0 47 -44 83 -89
71 -26 -7 -137 -153 -218 -288 -386 -642 -448 -1409 -171 -2110 275 -697 901
-1239 1633 -1415 208 -50 329 -64 560 -65 296 0 501 32 765 121 493 165 923
498 1223 947 137 205 274 525 326 762 43 196 55 313 56 530 0 391 -73 712
-240 1050 -234 473 -604 845 -1070 1075 -237 117 -468 189 -716 225 -107 16
-442 28 -519 19z"/>
<path d="M2130 4461 c-19 -10 -45 -33 -57 -51 -21 -31 -23 -44 -23 -190 l0
-158 -76 -17 c-41 -9 -107 -27 -145 -40 -66 -23 -71 -23 -115 -8 -154 52 -388
-63 -577 -284 -269 -315 -481 -807 -553 -1283 -24 -158 -24 -424 0 -545 43
-217 139 -360 278 -413 38 -14 57 -33 121 -117 42 -55 98 -124 124 -154 l49
-53 -10 -60 c-23 -137 43 -308 162 -419 145 -137 326 -180 532 -127 63 16 115
22 200 22 104 0 130 -4 275 -43 144 -38 171 -42 273 -42 129 1 187 13 202 42
17 30 8 70 -20 90 -22 16 -35 17 -103 9 -99 -12 -202 1 -336 39 -201 58 -330
64 -508 20 -230 -56 -418 22 -507 211 -27 56 -31 76 -31 145 0 64 5 90 23 128
36 71 102 132 173 158 127 47 187 133 175 256 -17 172 -18 226 -6 271 29 107
110 208 205 256 63 31 524 172 608 186 272 44 549 -53 742 -259 39 -41 127
-134 197 -206 153 -158 179 -205 186 -331 5 -89 -13 -172 -51 -234 -12 -19
-53 -69 -91 -110 -38 -41 -109 -123 -158 -181 -94 -114 -147 -163 -243 -224
-69 -43 -75 -50 -75 -87 0 -28 40 -68 69 -68 21 0 120 60 191 115 30 25 96 92
145 152 50 59 123 142 163 185 73 79 142 174 142 193 0 6 34 58 75 116 240
336 346 681 332 1084 -18 489 -238 940 -612 1253 -222 186 -455 299 -750 367
-20 4 -88 64 -218 193 -103 103 -205 197 -225 209 -45 28 -105 30 -152 4z
m226 -261 c967 -939 1544 -1506 1544 -1517 0 -11 -148 -13 -855 -13 l-855 0 0
836 c0 710 2 835 14 832 8 -2 76 -64 152 -138z m-306 -915 c0 -612 1 -637 20
-674 13 -27 33 -46 63 -60 44 -21 45 -21 925 -19 727 3 883 1 887 -10 3 -8 5
-72 5 -144 0 -151 -20 -305 -56 -433 -28 -101 -100 -277 -140 -344 l-27 -44
-22 76 c-12 42 -34 95 -49 118 -41 61 -411 442 -481 495 -84 64 -245 140 -345
164 -111 26 -254 35 -360 21 -78 -10 -549 -147 -646 -187 -148 -62 -266 -201
-309 -364 -19 -69 -19 -197 0 -274 12 -53 12 -64 -1 -91 -15 -33 -20 -36 -117
-79 -35 -15 -83 -49 -121 -86 l-64 -61 -44 53 c-25 29 -56 69 -71 88 l-26 36
45 23 c56 30 120 99 146 157 12 29 25 96 34 182 55 510 290 1188 560 1618 37
59 73 127 81 153 21 66 12 168 -19 231 l-25 50 56 16 c31 8 61 17 66 19 35 12
35 20 35 -630z m-345 566 c98 -45 135 -155 83 -248 -75 -132 -153 -253 -163
-253 -7 0 -32 7 -55 15 -91 32 -185 9 -231 -57 -34 -48 -38 -140 -7 -193 20
-35 73 -72 141 -97 6 -2 -35 -115 -49 -137 -2 -1 -39 9 -84 24 -129 43 -201
28 -257 -55 -75 -110 -15 -232 139 -281 50 -15 78 -29 78 -38 0 -8 -7 -41 -17
-74 -15 -56 -18 -58 -42 -52 -14 3 -49 9 -77 12 -119 13 -215 -101 -184 -218
17 -61 71 -111 144 -133 l58 -19 -6 -51 c-3 -28 -11 -96 -17 -151 -14 -133
-22 -156 -74 -204 -103 -95 -230 -55 -308 99 -226 448 78 1530 556 1976 70 65
164 126 226 144 45 14 104 10 146 -9z m1351 -56 c253 -118 504 -342 656 -587
47 -76 128 -236 128 -253 0 -4 -165 154 -367 352 -203 197 -411 401 -463 452
-105 103 -102 105 46 36z m-1498 -606 c-13 -39 -26 -43 -71 -24 -28 12 -37 21
-37 40 0 36 26 45 76 28 41 -14 42 -15 32 -44z m-235 -424 c52 -19 52 -19 36
-63 l-11 -31 -71 26 c-89 32 -106 52 -72 87 16 15 23 14 118 -19z m-118 -497
c18 -8 24 -17 20 -30 -17 -62 -12 -58 -60 -41 -47 16 -65 44 -45 68 15 18 50
19 85 3z"/>
<path d="M2478 3503 c-76 -76 -141 -148 -145 -160 -13 -54 35 -105 84 -89 10
3 81 69 157 145 118 119 139 144 139 170 0 41 -28 71 -66 71 -26 0 -53 -22
-169 -137z"/>
<path d="M2705 3264 c-115 -115 -145 -151 -145 -172 0 -15 4 -32 8 -38 13 -20
53 -36 75 -30 34 8 307 288 307 315 0 12 -11 33 -25 46 -45 46 -62 37 -220
-121z"/>
<path d="M2938 3032 c-158 -158 -169 -176 -128 -220 43 -46 64 -34 223 126
158 159 166 174 122 217 -43 44 -58 36 -217 -123z"/>
<path d="M2506 1949 c-88 -13 -210 -77 -279 -145 -77 -77 -133 -189 -149 -301
-39 -270 160 -533 435 -575 188 -29 379 50 492 203 136 185 135 437 -2 620
-112 148 -309 227 -497 198z m179 -144 c287 -75 379 -438 163 -641 -27 -25
-74 -57 -106 -72 -49 -23 -70 -27 -152 -27 -81 0 -103 4 -151 27 -195 90 -279
314 -190 504 37 78 86 133 153 169 97 53 185 65 283 40z"/>
</g>
</svg>
