<?xml version="1.0" standalone="no"?>
<!DOCTYPE svg PUBLIC "-//W3C//DTD SVG 20010904//EN"
 "http://www.w3.org/TR/2001/REC-SVG-20010904/DTD/svg10.dtd">
<svg version="1.0" xmlns="http://www.w3.org/2000/svg"
 width="100.000000pt" height="100.000000pt" viewBox="0 0 474.000000 474.000000"
 preserveAspectRatio="xMidYMid meet">

<g transform="translate(0.000000,474.000000) scale(0.100000,-0.100000)"
fill="#000000" stroke="none">
<path d="M531 3579 c-237 -46 -422 -207 -499 -433 l-27 -81 0 -695 0 -695 27
-81 c67 -195 217 -346 412 -411 l81 -27 382 -4 c375 -3 382 -3 402 17 27 27
27 75 1 101 -19 19 -33 20 -368 20 -383 0 -423 5 -534 61 -125 63 -231 207
-258 348 -6 33 -10 296 -10 675 0 676 1 688 58 804 36 76 132 171 209 211 127
63 64 61 1446 61 l1258 0 24 25 c32 31 32 59 0 90 l-24 25 -1268 -1 c-697 -1
-1288 -5 -1312 -10z"/>
<path d="M3345 3566 c-31 -31 -32 -66 -2 -94 22 -20 30 -21 442 -24 415 -3
421 -4 480 -27 149 -59 252 -162 309 -310 21 -55 21 -64 21 -741 l0 -685 -27
-69 c-58 -143 -154 -237 -303 -297 l-60 -24 -1338 -5 c-1311 -5 -1339 -5
-1353 -24 -30 -42 -10 -99 39 -111 12 -3 616 -4 1342 -3 l1320 3 81 27 c194
66 346 218 412 412 l27 81 0 695 0 695 -27 81 c-67 197 -222 349 -423 415 -68
23 -84 23 -492 27 l-423 3 -25 -25z"/>
<path d="M380 3280 c-20 -20 -22 -30 -17 -82 11 -120 91 -234 205 -289 40 -20
66 -24 184 -27 130 -4 137 -3 158 18 20 20 22 30 17 81 -10 116 -82 222 -189
280 -62 33 -66 34 -200 37 -130 4 -137 3 -158 -18z m304 -154 c38 -22 86 -78
86 -100 0 -10 -93 -5 -126 7 -58 22 -124 87 -124 123 0 17 122 -5 164 -30z"/>
<path d="M3469 3009 c-19 -19 -21 -29 -16 -80 9 -105 80 -220 161 -264 20 -11
36 -23 36 -27 0 -18 -113 -41 -221 -45 -175 -7 -201 1 -529 172 -226 117 -435
190 -664 230 -49 8 -106 15 -127 15 -47 0 -79 -28 -79 -68 0 -54 16 -63 151
-82 257 -39 500 -128 789 -290 124 -69 222 -104 342 -121 157 -22 259 1 618
140 85 33 156 58 158 56 2 -2 -34 -59 -79 -126 -50 -75 -82 -134 -82 -149 0
-15 32 -74 82 -149 45 -67 81 -124 79 -126 -2 -2 -59 19 -128 46 -370 148
-474 172 -651 150 l-100 -12 -208 120 c-115 67 -216 121 -225 121 -46 0 -86
-55 -112 -155 -18 -67 -18 -210 1 -271 8 -27 15 -54 15 -60 0 -14 -125 -65
-245 -100 -168 -49 -274 -64 -438 -64 -363 1 -704 88 -1080 276 -134 67 -329
184 -335 202 -1 5 50 46 115 89 323 219 689 368 1016 414 104 14 132 25 145
55 23 50 -13 94 -77 94 -120 0 -419 -73 -611 -150 -267 -106 -577 -289 -742
-439 -77 -68 -49 -109 172 -256 414 -276 864 -415 1343 -415 288 0 525 45 794
151 30 12 33 11 76 -28 186 -172 507 -162 690 20 29 30 61 71 71 92 27 56 14
82 -66 130 -85 51 -89 55 -42 49 91 -12 153 -32 394 -126 140 -55 294 -114
342 -131 l87 -32 28 21 c53 40 47 58 -101 280 l-136 204 135 202 c113 170 135
209 135 240 0 40 -19 58 -59 58 -12 0 -79 -22 -151 -49 l-130 -49 -24 53 c-34
75 -88 130 -164 167 -63 31 -73 33 -198 36 -125 3 -134 2 -155 -19z m266 -132
c55 -19 125 -86 125 -122 0 -10 -99 -5 -127 7 -52 22 -123 92 -123 121 0 11
87 6 125 -6z m-645 -692 c149 -85 284 -164 301 -174 l30 -19 -38 -31 c-87 -72
-198 -102 -297 -82 -166 34 -282 161 -294 320 -5 75 3 141 18 141 6 0 131 -70
280 -155z"/>
<path d="M1740 2690 c-11 -11 -20 -31 -20 -45 0 -30 272 -566 308 -607 24 -28
76 -23 101 8 12 15 21 31 21 36 0 20 -288 579 -313 609 -22 25 -71 25 -97 -1z"/>
<path d="M2200 2680 c-37 -37 -26 -69 91 -262 170 -280 174 -285 209 -293 67
-15 101 45 65 115 -39 76 -259 427 -277 443 -27 23 -63 22 -88 -3z"/>
<path d="M1353 2610 c-24 -10 -43 -39 -43 -67 1 -29 244 -455 273 -476 23 -18
29 -18 57 -7 34 14 54 51 45 81 -9 28 -242 441 -257 455 -19 18 -50 24 -75 14z"/>
<path d="M881 2414 c-12 -15 -21 -34 -21 -44 0 -10 9 -29 21 -44 40 -50 119
-21 119 44 0 65 -79 94 -119 44z"/>
<path d="M730 1860 c-92 -5 -124 -10 -162 -28 -113 -55 -194 -170 -205 -290
-5 -52 -3 -62 16 -81 21 -21 30 -22 154 -19 118 3 138 6 189 30 109 51 193
166 205 282 7 66 -11 102 -54 107 -15 2 -80 2 -143 -1z m40 -146 c0 -22 -48
-78 -86 -100 -46 -27 -164 -46 -164 -27 0 24 62 92 101 111 41 20 149 31 149
16z"/>
</g>
</svg>
