<?xml version="1.0" standalone="no"?>
<!DOCTYPE svg PUBLIC "-//W3C//DTD SVG 20010904//EN"
 "http://www.w3.org/TR/2001/REC-SVG-20010904/DTD/svg10.dtd">
<svg version="1.0" xmlns="http://www.w3.org/2000/svg"
 width="100.000000pt" height="100.000000pt" viewBox="0 0 474.000000 474.000000"
 preserveAspectRatio="xMidYMid meet">

<g transform="translate(0.000000,474.000000) scale(0.100000,-0.100000)"
fill="#000000" stroke="none">
<path d="M1765 3864 c-22 -11 -35 -13 -53 -5 -97 45 -178 -38 -138 -142 22
-59 112 -146 158 -153 32 -6 41 -2 82 36 48 44 96 128 96 167 0 40 -29 84 -65
99 -42 17 -43 17 -80 -2z"/>
<path d="M2216 3776 c-15 -9 -37 -27 -47 -40 -16 -20 -26 -24 -53 -19 -42 7
-99 -19 -115 -53 -17 -38 -13 -95 9 -132 35 -57 179 -132 255 -132 45 0 69 31
101 136 20 65 25 94 19 130 -13 90 -100 146 -169 110z"/>
<path d="M3505 3618 c-508 -96 -1458 -369 -1559 -449 -55 -43 -36 -65 175
-193 623 -381 816 -500 830 -514 9 -9 37 -96 62 -192 26 -96 60 -226 77 -288
16 -62 30 -118 30 -125 0 -6 -54 -47 -120 -91 l-120 -79 0 -49 c0 -35 4 -50
16 -55 23 -9 705 178 712 195 3 8 -4 30 -16 50 -23 42 -42 47 -223 58 l-97 6
-50 181 c-114 413 -115 417 -104 440 5 12 136 260 290 551 227 427 279 533
271 548 -8 14 -21 18 -67 17 -31 -1 -79 -5 -107 -11z m-130 -108 c-306 -107
-1255 -357 -1255 -331 0 18 606 196 990 290 386 94 441 103 265 41z m132 -137
c-241 -447 -457 -862 -457 -877 0 -27 170 -639 181 -652 6 -8 64 -15 154 -19
80 -4 145 -10 145 -14 0 -8 -579 -166 -585 -159 -2 2 44 37 103 76 59 40 115
79 125 87 18 13 14 29 -69 342 -49 188 -94 335 -103 344 -13 13 -519 325 -879
542 -45 27 -81 51 -80 53 2 1 62 14 133 29 389 79 1080 269 1327 364 40 16 75
27 76 26 2 -2 -30 -66 -71 -142z"/>
<path d="M3187 3203 c-183 -63 -407 -98 -770 -122 -96 -7 -133 -13 -145 -25
-14 -14 -14 -17 4 -37 42 -48 628 -405 680 -415 39 -7 85 15 112 53 25 36 199
363 253 475 34 72 39 91 29 103 -16 20 -14 20 -163 -32z"/>
<path d="M1483 3390 c-61 -37 -83 -124 -64 -249 19 -124 46 -142 166 -117 144
29 210 80 210 161 0 63 -49 115 -109 115 -17 0 -27 9 -36 30 -30 73 -104 99
-167 60z"/>
<path d="M1067 2905 c-12 -11 -15 -25 -11 -39 4 -11 64 -129 134 -261 368
-690 430 -810 430 -828 0 -18 -56 -231 -123 -471 -38 -135 -36 -134 -138 -135
-36 -1 -94 -4 -128 -8 -59 -6 -64 -8 -88 -45 -13 -22 -22 -45 -20 -52 3 -7
108 -40 233 -75 126 -34 283 -77 349 -95 66 -18 126 -31 133 -29 7 3 12 25 12
57 l0 52 -111 74 c-61 41 -115 78 -121 81 -7 5 122 523 150 598 5 14 74 62
183 129 782 477 879 538 879 553 0 39 -87 81 -350 167 -420 138 -1126 317
-1333 338 -52 5 -66 3 -80 -11z m350 -100 c217 -47 486 -117 708 -182 66 -19
136 -40 155 -45 80 -21 341 -110 337 -115 -17 -16 -807 190 -1156 301 -274 88
-280 93 -44 41z m-147 -41 c267 -99 962 -288 1309 -355 107 -21 113 -23 94
-38 -11 -9 -229 -144 -486 -301 l-466 -285 -21 -80 c-12 -44 -49 -181 -82
-305 -34 -124 -61 -241 -62 -260 -1 -34 3 -38 114 -113 63 -42 116 -81 118
-86 2 -5 -75 13 -170 39 -95 26 -229 63 -298 81 l-125 33 45 8 c25 4 93 10
153 14 85 5 109 9 116 22 5 10 23 69 39 132 17 63 56 206 86 316 l56 202 -116
218 c-64 121 -180 341 -259 489 -154 288 -162 305 -149 305 5 0 52 -16 104
-36z"/>
<path d="M1390 2501 c-10 -20 26 -96 179 -381 25 -47 57 -107 71 -134 14 -27
39 -64 57 -83 26 -29 35 -33 60 -27 30 8 148 76 428 247 260 160 283 175 295
197 17 31 -16 40 -183 50 -370 23 -550 52 -775 126 -90 29 -118 30 -132 5z"/>
</g>
</svg>
